<svg width="512" height="512" viewBox="0 0 512 512" xmlns="http://www.w3.org/2000/svg">
    <defs>
        <linearGradient id="bgGradient" x1="0%" y1="0%" x2="100%" y2="100%">
            <stop offset="0%" style="stop-color:#1a2a44;stop-opacity:1" />
            <stop offset="100%" style="stop-color:#2e1a44;stop-opacity:1" />
        </linearGradient>

        <linearGradient id="ringGradient" x1="0%" y1="0%" x2="100%" y2="100%">
            <stop offset="0%" style="stop-color:#ff9a44;stop-opacity:1" />
            <stop offset="100%" style="stop-color:#8a44ff;stop-opacity:1" />
        </linearGradient>
    </defs>

    <rect x="20" y="20" width="472" height="472" rx="100" fill="url(#bgGradient)" />

    <circle cx="256" cy="256" r="180" fill="none" stroke="url(#ringGradient)" stroke-width="12" />
    <circle cx="256" cy="256" r="195" fill="none" stroke="#ffffff" stroke-opacity="0.1"
        stroke-width="2" />

    <path d="M120 200 Q100 256 120 312" fill="none" stroke="white" stroke-width="8"
        stroke-linecap="round" opacity="0.6" />
    <path d="M145 220 Q130 256 145 292" fill="none" stroke="white" stroke-width="8"
        stroke-linecap="round" opacity="0.8" />

    <path d="M392 200 Q412 256 392 312" fill="none" stroke="white" stroke-width="8"
        stroke-linecap="round" opacity="0.6" />
    <path d="M367 220 Q382 256 367 292" fill="none" stroke="white" stroke-width="8"
        stroke-linecap="round" opacity="0.8" />

    <path
        d="M330 140 L230 165 V320 C230 350 200 370 170 360 C145 350 145 315 170 305 C185 300 210 305 210 320 V205 L310 180 V280 C310 310 280 330 250 320 C225 310 225 275 250 265 C265 260 290 265 290 280 Z"
        fill="white" />

    <polygon points="265,275 265,305 290,290" fill="#1a2a44" />
</svg>